<?xml version="1.0" encoding="iso-8859-1"?>
<!-- Generator: Adobe Illustrator 19.0.0, SVG Export Plug-In . SVG Version: 6.00 Build 0)  -->
<svg version="1.1" id="Layer_1" xmlns="http://www.w3.org/2000/svg" xmlns:xlink="http://www.w3.org/1999/xlink" x="0px" y="0px"
	 viewBox="0 0 511.882 511.882" style="enable-background:new 0 0 511.882 511.882;" xml:space="preserve">
<g>
	<path style="fill:#F6BB42;" d="M213.061,0c-5.889,0-10.669,4.779-10.669,10.669v42.678h21.323V10.669
		C223.714,4.779,218.949,0,213.061,0z"/>
	<path style="fill:#F6BB42;" d="M277.484,0c-5.891,0-10.67,4.779-10.67,10.669v42.678c7.342,0.016,14.48,0.859,21.338,2.438V10.669
		C288.152,4.779,283.374,0,277.484,0z"/>
	<path style="fill:#F6BB42;" d="M202.391,501.212c0,5.89,4.78,10.67,10.669,10.67s10.654-4.78,10.654-10.67v-42.646h-21.323V501.212
		z"/>
	<path style="fill:#F6BB42;" d="M266.814,501.212c0,5.89,4.779,10.67,10.67,10.67c5.889,0,10.668-4.78,10.668-10.67v-42.646h-21.338
		V501.212z"/>
</g>
<path style="fill:#FFCE54;" d="M326.066,237.867c28.447-19.152,47.176-51.66,47.176-88.542c0-58.894-47.754-106.632-106.646-106.632
	H153.152v-0.031h-46.521c-5.889,0-10.654,4.764-10.654,10.653s4.765,10.67,10.654,10.67h31.993v170.633v21.354v191.94h-31.993
	c-5.889,0-10.654,4.764-10.654,10.653s4.765,10.67,10.654,10.67h31.993h14.528h145.436c64.797,0,117.316-52.52,117.316-117.302
	C415.905,296.603,377.602,250.223,326.066,237.867z M159.964,64.016h106.632c22.791,0,44.209,8.873,60.33,24.979
	c16.105,16.121,24.994,37.538,24.994,60.33c0,22.791-8.889,44.208-24.994,60.329c-15.73,15.731-36.539,24.558-58.721,24.964H159.964
	V64.016z M366.462,419.794c-18.137,18.137-42.24,28.119-67.875,28.119H159.964v-191.94h106.632c0.516,0,1.031-0.016,1.547-0.016
	h30.445c25.635,0,49.738,9.981,67.875,28.103c18.121,18.137,28.104,42.225,28.104,67.875
	C394.566,377.569,384.585,401.672,366.462,419.794z"/>
<g>
</g>
<g>
</g>
<g>
</g>
<g>
</g>
<g>
</g>
<g>
</g>
<g>
</g>
<g>
</g>
<g>
</g>
<g>
</g>
<g>
</g>
<g>
</g>
<g>
</g>
<g>
</g>
<g>
</g>
</svg>
