<?xml version="1.0" encoding="iso-8859-1"?>
<!-- Generator: Adobe Illustrator 19.0.0, SVG Export Plug-In . SVG Version: 6.00 Build 0)  -->
<svg version="1.1" id="Layer_1" xmlns="http://www.w3.org/2000/svg" xmlns:xlink="http://www.w3.org/1999/xlink" x="0px" y="0px"
	 viewBox="0 0 511.997 511.997" style="enable-background:new 0 0 511.997 511.997;" xml:space="preserve">
<g>
	<polygon style="fill:#F0C419;" points="35.308,353.102 511.997,353.102 511.997,123.585 35.308,123.585 	"/>
	<g>
		<polygon style="fill:#BA9317;" points="35.31,353.102 35.31,158.895 0,158.895 0,388.412 476.69,388.412 476.69,353.102 		"/>
		<path style="fill:#BA9317;" d="M105.931,326.619h-35.31c-4.873,0-8.828-3.955-8.828-8.828s3.955-8.828,8.828-8.828h35.31
			c4.873,0,8.828,3.955,8.828,8.828S110.804,326.619,105.931,326.619"/>
		<path style="fill:#BA9317;" d="M476.69,167.723h-35.31c-4.873,0-8.828-3.955-8.828-8.828c0-4.873,3.955-8.828,8.828-8.828h35.31
			c4.873,0,8.828,3.955,8.828,8.828C485.517,163.768,481.562,167.723,476.69,167.723"/>
		<path style="fill:#BA9317;" d="M247.172,229.516h26.483c14.601,0,26.483-11.882,26.483-26.483s-11.882-26.483-26.483-26.483
			h-26.483V229.516z M273.655,247.171h-35.31c-4.873,0-8.828-3.955-8.828-8.828v-70.621c0-4.873,3.955-8.828,8.828-8.828h35.31
			c24.338,0,44.138,19.8,44.138,44.138S297.993,247.171,273.655,247.171L273.655,247.171z"/>
		<path style="fill:#BA9317;" d="M247.172,300.137h44.138c14.601,0,26.483-11.882,26.483-26.483s-11.882-26.483-26.483-26.483
			h-44.138V300.137z M291.31,317.792h-52.966c-4.873,0-8.828-3.955-8.828-8.828v-70.621c0-4.873,3.955-8.828,8.828-8.828h52.966
			c24.338,0,44.138,19.8,44.138,44.138C335.448,297.992,315.648,317.792,291.31,317.792L291.31,317.792z"/>
		<path style="fill:#BA9317;" d="M238.345,176.55H220.69c-4.873,0-8.828-3.955-8.828-8.828c0-4.873,3.955-8.828,8.828-8.828h17.655
			c4.873,0,8.828,3.955,8.828,8.828C247.172,172.596,243.218,176.55,238.345,176.55"/>
		<path style="fill:#BA9317;" d="M238.345,317.792H220.69c-4.873,0-8.828-3.955-8.828-8.828c0-4.873,3.955-8.828,8.828-8.828h17.655
			c4.873,0,8.828,3.955,8.828,8.828C247.172,313.837,243.218,317.792,238.345,317.792"/>
		<path style="fill:#BA9317;" d="M264.828,282.481H220.69c-4.873,0-8.828-3.955-8.828-8.828s3.955-8.828,8.828-8.828h44.138
			c4.873,0,8.828,3.955,8.828,8.828S269.7,282.481,264.828,282.481"/>
	</g>
</g>
<g>
</g>
<g>
</g>
<g>
</g>
<g>
</g>
<g>
</g>
<g>
</g>
<g>
</g>
<g>
</g>
<g>
</g>
<g>
</g>
<g>
</g>
<g>
</g>
<g>
</g>
<g>
</g>
<g>
</g>
</svg>
